# xmcd
#
# Track frame offsets:
#	150
#	16330
#	26532
#	41465
#	55692
#	69775
#	83962
#	117345
#	130812
#	144020
#	159350
#	170785
#	185867
#	199992
#	214495
#	225747
#	239647
#	256070
#	267095
#	282590
#
# Disc length: 3962 seconds
#
# Revision: 1
# Processed by: cddbd v1.5.1PL0 Copyright (c) Steve Scherf et al.
# Submitted via: CDex 1.50Beta5
#
DISCID=210f7814
DTITLE=Various Artist - feel beat 11: Dancing
DYEAR=1900
DGENRE=Jazz
TTITLE0=イン・ザ・ムード
TTITLE1=レッツ・ダンス
TTITLE2=ビギン・ザ・ビギン
TTITLE3=スリーピー・ラグーン
TTITLE4=ワン・オクロック・ジャンプ
TTITLE5=センチメンタル・ジャーニー
TTITLE6=シング・シング・シング
TTITLE7=サテン・ドール
TTITLE8=昔きいた歌
TTITLE9=イーガー・ビーヴァー
TTITLE10=ザ・マン・ウィズ・ザ・ホーン
TTITLE11=あなたの想い出
TTITLE12=イッツ・ビーン・ア・ロング・タイム
TTITLE13=トワイライト・タイム
TTITLE14=スターダスト
TTITLE15=その手はないよ
TTITLE16=エア・メイル・スペシャル
TTITLE17=茶色の小瓶
TTITLE18=ムーンライト・セレナーデ
TTITLE19=グッドバイ
EXTD=
EXTT0=
EXTT1=
EXTT2=
EXTT3=
EXTT4=
EXTT5=
EXTT6=
EXTT7=
EXTT8=
EXTT9=
EXTT10=
EXTT11=
EXTT12=
EXTT13=
EXTT14=
EXTT15=
EXTT16=
EXTT17=
EXTT18=
EXTT19=
PLAYORDER=
